<svg width="289" height="246" viewBox="0 0 289 246" fill="none" xmlns="http://www.w3.org/2000/svg">
<rect x="42" y="46" width="24" height="9" fill="#47750C"/>
<rect x="42" y="62" width="24" height="10" fill="#47750C"/>
<rect x="76" width="17" height="37" fill="#ABFF40"/>
<rect x="128" width="17" height="37" fill="#ABFF40"/>
<rect x="60" y="69" width="98" height="33" fill="#ABFF40"/>
<rect x="52" y="46" width="118" height="38" fill="#ABFF40"/>
<rect x="66" y="28" width="88" height="38" fill="#ABFF40"/>
<rect x="119" y="18" width="35" height="38" fill="#ABFF40"/>
<rect x="66" y="18" width="35" height="38" fill="#ABFF40"/>
<rect x="154" y="46" width="25" height="9" fill="#47750C"/>
<rect x="76" y="59" width="7" height="10" fill="#47750C"/>
<rect x="128" y="59" width="8" height="10" fill="#47750C"/>
<rect x="101" y="51" width="8" height="9" fill="#47750C"/>
<rect x="93" y="60" width="8" height="8" fill="#47750C"/>
<rect x="109" y="60" width="9" height="8" fill="#47750C"/>
<rect x="154" y="62" width="25" height="10" fill="#47750C"/>
<rect x="189" y="12" width="18.6016" height="17.5443" fill="#ABFF40"/>
<rect x="200.781" y="17.6392" width="18.6016" height="18.1709" fill="#ABFF40"/>
<rect x="200.781" y="62.1265" width="18.6016" height="21.9303" fill="#ABFF40"/>
<rect x="189" y="77.791" width="18.6016" height="24.4367" fill="#ABFF40"/>
<rect x="200.781" y="72.7784" width="12.4011" height="17.5443" fill="#ABFF40"/>
<rect x="206.362" y="29.5443" width="17.9816" height="42.6075" fill="#ABFF40"/>
<rect x="31" y="81" width="61" height="165" fill="#5B8329"/>
<rect x="92" y="81" width="150" height="165" fill="#76B623"/>
<rect x="31" y="81" width="61" height="14" fill="#95D741"/>
<rect x="106" y="81" width="153" height="14" fill="#95D741"/>
<rect x="121" y="95" width="152" height="15" fill="#95D741"/>
<rect x="136" y="110" width="153" height="14" fill="#95D741"/>
<rect x="16" y="95" width="61" height="14" fill="#95D741"/>
<rect y="109" width="61" height="16" fill="#95D741"/>
</svg>
