<svg width="289" height="193" viewBox="0 0 289 193" fill="none" xmlns="http://www.w3.org/2000/svg">
<rect x="45" y="46" width="24" height="9" fill="#47750C"/>
<rect x="45" y="62" width="24" height="10" fill="#47750C"/>
<rect x="79" width="17" height="37" fill="#ABFF40"/>
<rect x="131" width="17" height="37" fill="#ABFF40"/>
<rect x="63" y="69" width="98" height="33" fill="#ABFF40"/>
<rect x="55" y="46" width="118" height="38" fill="#ABFF40"/>
<rect x="69" y="28" width="88" height="38" fill="#ABFF40"/>
<rect x="122" y="18" width="35" height="38" fill="#ABFF40"/>
<rect x="69" y="18" width="35" height="38" fill="#ABFF40"/>
<rect x="157" y="46" width="25" height="9" fill="#47750C"/>
<rect x="79" y="59" width="7" height="10" fill="#47750C"/>
<rect x="131" y="59" width="8" height="10" fill="#47750C"/>
<rect x="104" y="51" width="8" height="9" fill="#47750C"/>
<rect x="96" y="60" width="8" height="8" fill="#47750C"/>
<rect x="112" y="60" width="9" height="8" fill="#47750C"/>
<rect x="157" y="62" width="25" height="10" fill="#47750C"/>
<rect x="192" y="12" width="18.6016" height="17.5443" fill="#ABFF40"/>
<rect x="203.781" y="17.6392" width="18.6016" height="18.1709" fill="#ABFF40"/>
<rect x="203.781" y="62.1265" width="18.6016" height="21.9303" fill="#ABFF40"/>
<rect x="192" y="77.791" width="18.6016" height="24.4367" fill="#ABFF40"/>
<rect x="203.781" y="72.7784" width="12.4011" height="17.5443" fill="#ABFF40"/>
<rect x="209.362" y="29.5443" width="17.9816" height="42.6075" fill="#ABFF40"/>
<rect x="31" y="28" width="61" height="165" fill="#5B8329"/>
<rect x="92" y="28" width="150" height="165" fill="#76B623"/>
<rect x="31" y="28" width="61" height="14" fill="#95D741"/>
<rect x="106" y="28" width="153" height="14" fill="#95D741"/>
<rect x="121" y="42" width="152" height="15" fill="#95D741"/>
<rect x="136" y="57" width="153" height="14" fill="#95D741"/>
<rect x="16" y="42" width="61" height="14" fill="#95D741"/>
<rect y="56" width="61" height="16" fill="#95D741"/>
</svg>
